<svg width="100" height="100" viewBox="0 0 100 100" fill="none" xmlns="http://www.w3.org/2000/svg">
<path d="M75.2104 93.8844H24.8291V79.548L29.3347 76.2712V72.9944C29.3347 72.9944 30.1883 72.06 31.4391 70.5368C34.3017 67.0512 39.2453 60.482 40.8036 54.9716C43.0432 47.0536 39.9845 32.4435 39.9845 32.4435H61.284C61.284 32.4435 57.806 44.596 59.6456 52.514C60.9832 58.2712 66.0052 66.4828 68.6472 70.5368C69.6388 72.0584 70.2952 72.9944 70.2952 72.9944V76.2712L75.2104 79.548V93.8844Z" fill="white"/>
<path d="M29.3347 76.2712L24.8291 79.548V93.8844H75.2104V79.548L70.2952 76.2712M29.3347 76.2712V72.9944C29.3347 72.9944 30.1883 72.06 31.4391 70.5368M29.3347 76.2712H70.2952M70.2952 76.2712V72.9944C70.2952 72.9944 69.6388 72.0584 68.6472 70.5368M31.4391 70.5368C34.3017 67.0512 39.2453 60.482 40.8036 54.9716C43.0432 47.0536 39.9845 32.4435 39.9845 32.4435H61.284C61.284 32.4435 57.806 44.596 59.6456 52.514C60.9832 58.2712 66.0052 66.4828 68.6472 70.5368M31.4391 70.5368H68.6472" stroke="url(#paint0_linear_302_1219)" stroke-width="0.723179"/>
<path d="M54.1784 13.7205C55.6768 12.6983 56.6324 11.1484 56.6324 9.4134C56.6324 6.33508 53.6244 3.8396 49.9132 3.8396C46.2024 3.8396 43.1944 6.33508 43.1944 9.4134C43.1944 11.1518 44.1536 12.7044 45.6572 13.7266L34.0755 22.9498C34.0755 22.9498 31.6758 25.2302 31.6758 27.3292C31.6758 29.4282 33.1156 33.6992 33.1156 33.6992L34.0755 38.8749H64.7912L66.2312 33.6992C66.2312 33.6992 68.1508 29.4282 68.1508 27.3292C68.1508 25.2302 66.2312 22.9498 66.2312 22.9498L54.1784 13.7205Z" fill="white"/>
<path d="M33.1156 33.6992C33.1156 33.6992 31.6758 29.4282 31.6758 27.3292C31.6758 25.2302 34.0755 22.9498 34.0755 22.9498L45.6572 13.7266C44.1536 12.7044 43.1944 11.1518 43.1944 9.4134C43.1944 6.33508 46.2024 3.8396 49.9132 3.8396C53.6244 3.8396 56.6324 6.33508 56.6324 9.4134C56.6324 11.1484 55.6768 12.6983 54.1784 13.7205L66.2312 22.9498C66.2312 22.9498 68.1508 25.2302 68.1508 27.3292C68.1508 29.4282 66.2312 33.6992 66.2312 33.6992M33.1156 33.6992L34.0755 38.8749H64.7912L66.2312 33.6992M33.1156 33.6992H49.6732H66.2312" stroke="url(#paint1_linear_302_1219)" stroke-width="0.723179"/>
<defs>
<linearGradient id="paint0_linear_302_1219" x1="50.02" y1="32.4435" x2="50.02" y2="93.8844" gradientUnits="userSpaceOnUse">
<stop stop-color="#38180B"/>
<stop offset="1" stop-color="#3A1A0C"/>
</linearGradient>
<linearGradient id="paint1_linear_302_1219" x1="49.9132" y1="3.8396" x2="49.9132" y2="38.8749" gradientUnits="userSpaceOnUse">
<stop stop-color="#38180B"/>
<stop offset="1" stop-color="#3A1A0C"/>
</linearGradient>
</defs>
</svg>
