<svg width="100" height="100" viewBox="0 0 100 100" fill="none" xmlns="http://www.w3.org/2000/svg">
<path d="M78.4697 95.2236H28.2339V80.5716L32.8388 76.8036L35.7692 70.5244C35.7692 70.5244 34.704 65.1928 36.3972 59.64C38.8711 51.5264 48.3281 36.6152 48.3281 36.6152C48.3281 36.6152 45.1885 41.22 38.281 39.5456C31.3736 37.8711 24.4662 42.8948 24.4662 42.8948L21.1172 32.8476L32.8388 25.7308C32.8388 25.7308 32.7447 21.7402 35.7692 19.4514C38.7937 17.1626 48.3281 14.0092 48.3281 14.0092V4.79932C48.3281 4.79932 68.7865 18.0942 73.4461 31.173C78.1053 44.252 72.1901 70.5244 72.1901 70.5244L73.8645 76.8036L78.4697 80.5716V95.2236Z" fill="white"/>
<path d="M73.8645 76.8036L78.4697 80.5716V95.2236H28.2339V80.5716L32.8388 76.8036M73.8645 76.8036L72.1901 70.5244M73.8645 76.8036H32.8388M32.8388 76.8036L35.7692 70.5244M72.1901 70.5244C72.1901 70.5244 78.1053 44.252 73.4461 31.173C68.7865 18.0942 48.3281 4.79932 48.3281 4.79932V14.0092C48.3281 14.0092 38.7937 17.1626 35.7692 19.4514C32.7447 21.7402 32.8388 25.7308 32.8388 25.7308L21.1172 32.8476L24.4662 42.8948C24.4662 42.8948 31.3736 37.8711 38.281 39.5456C45.1885 41.22 48.3281 36.6152 48.3281 36.6152C48.3281 36.6152 38.8711 51.5264 36.3972 59.64C34.704 65.1928 35.7692 70.5244 35.7692 70.5244M72.1901 70.5244H35.7692" stroke="url(#paint0_linear_302_1224)" stroke-width="0.723179"/>
<defs>
<linearGradient id="paint0_linear_302_1224" x1="49.7933" y1="4.79932" x2="49.7933" y2="95.2236" gradientUnits="userSpaceOnUse">
<stop stop-color="#38180B"/>
<stop offset="1" stop-color="#3A1A0C"/>
</linearGradient>
</defs>
</svg>
