<svg width="100" height="100" viewBox="0 0 100 100" fill="none" xmlns="http://www.w3.org/2000/svg">
<path d="M75.4516 97.6755H25.0701V86.1142L29.5757 83.4716V80.829C29.5757 80.829 30.4292 80.0755 31.6801 78.8468C34.5427 76.0358 39.4862 70.7381 41.0448 66.2945C43.284 59.909 40.2256 48.1265 40.2256 48.1265H61.5248C61.5248 48.1265 58.0468 57.9271 59.8864 64.3126C61.224 68.9552 66.2464 75.5778 68.888 78.8468C69.88 80.0742 70.5364 80.829 70.5364 80.829V83.4716L75.4516 86.1142V97.6755Z" fill="white"/>
<path d="M29.5757 83.4716L25.0701 86.1142V97.6755H75.4516V86.1142L70.5364 83.4716M29.5757 83.4716V80.829C29.5757 80.829 30.4292 80.0755 31.6801 78.8468M29.5757 83.4716H70.5364M70.5364 83.4716V80.829C70.5364 80.829 69.88 80.0742 68.888 78.8468M31.6801 78.8468C34.5427 76.0358 39.4862 70.7381 41.0448 66.2945C43.284 59.909 40.2256 48.1265 40.2256 48.1265H61.5248C61.5248 48.1265 58.0468 57.9271 59.8864 64.3126C61.224 68.9552 66.2464 75.5778 68.888 78.8468M31.6801 78.8468H68.888" stroke="url(#paint0_linear_302_1227)" stroke-width="0.723179"/>
<path d="M48.4371 16.2677V11.8166H42.8147V8.79395H48.0623V4.26001H52.1851V8.79395H57.4323V11.8166H52.1851V16.234C54.7843 16.7823 56.3079 18.4874 56.3079 20.5823C56.3079 22.0936 55.9615 23.0889 54.2759 24.0781L70.5507 36.9045L61.5551 43.2519H63.8039V50.2041H36.8179V43.2519H39.4416L31.1958 36.9045L45.8135 23.9071H46.0703C44.5419 22.9098 44.3139 21.489 44.3139 20.5823C44.3139 18.5605 46.0143 16.8557 48.4371 16.2677Z" fill="white"/>
<path d="M61.5551 43.2522L70.5507 36.9045L54.2759 24.0781C55.9615 23.0889 56.3079 22.0936 56.3079 20.5822C56.3079 18.4874 54.7843 16.7823 52.1851 16.234V11.8166H57.4323V8.79395H52.1851V4.26001H48.0623V8.79395H42.8147V11.8166H48.4371V16.2677C46.0143 16.8557 44.3139 18.5605 44.3139 20.5822C44.3139 21.489 44.5419 22.9098 46.0703 23.9071H45.8135L31.1958 36.9045L39.4416 43.2522M61.5551 43.2522H63.8039V50.2041H36.8179V43.2522H39.4416M61.5551 43.2522H39.4416" stroke="url(#paint1_linear_302_1227)" stroke-width="0.723179"/>
<defs>
<linearGradient id="paint0_linear_302_1227" x1="50.2608" y1="48.1265" x2="50.2608" y2="97.6755" gradientUnits="userSpaceOnUse">
<stop stop-color="#38180B"/>
<stop offset="1" stop-color="#3A1A0C"/>
</linearGradient>
<linearGradient id="paint1_linear_302_1227" x1="50.8731" y1="4.26001" x2="50.8731" y2="50.2041" gradientUnits="userSpaceOnUse">
<stop stop-color="#38180B"/>
<stop offset="1" stop-color="#3A1A0C"/>
</linearGradient>
</defs>
</svg>
