<svg width="100" height="100" viewBox="0 0 100 100" fill="none" xmlns="http://www.w3.org/2000/svg">
<path d="M75.4517 97.1176H25.0703V82.7816L29.576 79.5048V76.228C29.576 76.228 30.4295 75.2936 31.6804 73.77C34.5429 70.2844 39.4865 63.7152 41.0449 58.2052C43.2845 50.2872 40.2257 35.6769 40.2257 35.6769H61.5253C61.5253 35.6769 58.0473 47.8296 59.8869 55.7476C61.2241 61.5044 66.2465 69.7164 68.8885 73.77C69.8801 75.292 70.5365 76.228 70.5365 76.228V79.5048L75.4517 82.7816V97.1176Z" fill="white"/>
<path d="M29.576 79.5048L25.0703 82.7816V97.1176H75.4517V82.7816L70.5365 79.5048M29.576 79.5048V76.228C29.576 76.228 30.4295 75.2936 31.6804 73.77M29.576 79.5048H70.5365M70.5365 79.5048V76.228C70.5365 76.228 69.8801 75.292 68.8885 73.77M31.6804 73.77C34.5429 70.2844 39.4865 63.7152 41.0449 58.2052C43.2845 50.2872 40.2257 35.6769 40.2257 35.6769H61.5253C61.5253 35.6769 58.0473 47.8296 59.8869 55.7476C61.2241 61.5044 66.2465 69.7164 68.8885 73.77M31.6804 73.77H68.8885" stroke="url(#paint0_linear_302_1232)" stroke-width="0.723179"/>
<path d="M53.9976 16.1298C55.254 14.9343 56.5288 12.7725 56.5288 10.9012C56.5288 7.27691 53.5912 4.33899 49.9668 4.33899C46.3424 4.33899 43.4044 7.27691 43.4044 10.9012C43.4044 13.0353 45.188 14.9314 46.7656 16.1298L43.4044 20.7446C43.4044 20.7446 38.445 20.2462 35.3839 20.7446C32.3228 21.2431 26.9988 24.7549 26.9988 24.7549C26.9988 24.7549 33.3193 27.4386 35.3839 29.8589C37.4485 32.2791 40.488 37.1503 40.488 37.1503H37.9359V45.1708H63.8204V37.1503H61.6328C61.6328 37.1503 63.8808 32.2791 66.3724 29.8589C68.864 27.4386 74.3928 24.7549 74.3928 24.7549C74.3928 24.7549 69.576 21.2431 66.3724 20.7446C63.1688 20.2462 57.9872 20.7446 57.9872 20.7446L53.9976 16.1298Z" fill="white"/>
<path d="M40.488 37.1503C40.488 37.1503 37.4485 32.2791 35.3839 29.8589C33.3193 27.4386 26.9988 24.7549 26.9988 24.7549C26.9988 24.7549 32.3228 21.2431 35.3839 20.7446C38.445 20.2462 43.4044 20.7446 43.4044 20.7446L46.7656 16.1298C45.188 14.9314 43.4044 13.0353 43.4044 10.9012C43.4044 7.27691 46.3424 4.33899 49.9668 4.33899C53.5912 4.33899 56.5288 7.27691 56.5288 10.9012C56.5288 12.7725 55.254 14.9343 53.9976 16.1298L57.9872 20.7446C57.9872 20.7446 63.1688 20.2462 66.3724 20.7446C69.576 21.2431 74.3928 24.7549 74.3928 24.7549C74.3928 24.7549 68.864 27.4386 66.3724 29.8589C63.8808 32.2791 61.6328 37.1503 61.6328 37.1503M40.488 37.1503H37.9359V45.1708H63.8204V37.1503H61.6328M40.488 37.1503H61.6328" stroke="url(#paint1_linear_302_1232)" stroke-width="0.723179"/>
<defs>
<linearGradient id="paint0_linear_302_1232" x1="50.2609" y1="35.6769" x2="50.2609" y2="97.1176" gradientUnits="userSpaceOnUse">
<stop stop-color="#38180B"/>
<stop offset="1" stop-color="#3A1A0C"/>
</linearGradient>
<linearGradient id="paint1_linear_302_1232" x1="50.696" y1="4.33899" x2="50.696" y2="45.1708" gradientUnits="userSpaceOnUse">
<stop stop-color="#38180B"/>
<stop offset="1" stop-color="#3A1A0C"/>
</linearGradient>
</defs>
</svg>
