<svg width="100" height="100" viewBox="0 0 100 100" fill="none" xmlns="http://www.w3.org/2000/svg">
<path d="M75.1056 93.7527H24.7944V79.4367L29.2938 76.1643V72.8919C29.2938 72.8919 30.1461 71.9591 31.3952 70.438C34.2538 66.9571 39.1904 60.3971 40.7468 54.8947C42.9832 46.9875 39.9286 32.3978 39.9286 32.3978H61.1984C61.1984 32.3978 57.7252 44.5335 59.5624 52.4403C60.898 58.1891 65.9132 66.3895 68.5512 70.438C69.5416 71.9576 70.1972 72.8919 70.1972 72.8919V76.1643L75.1056 79.4367V93.7527Z" fill="white"/>
<path d="M29.2938 76.1643L24.7944 79.4367V93.7527H75.1056V79.4367L70.1972 76.1643M29.2938 76.1643V72.8919C29.2938 72.8919 30.1461 71.9592 31.3952 70.438M29.2938 76.1643H70.1972M70.1972 76.1643V72.8919C70.1972 72.8919 69.5416 71.9576 68.5512 70.438M31.3952 70.438C34.2538 66.9572 39.1904 60.3971 40.7468 54.8947C42.9832 46.9875 39.9286 32.3978 39.9286 32.3978H61.1984C61.1984 32.3978 57.7252 44.5335 59.5624 52.4403C60.898 58.1891 65.9132 66.3896 68.5512 70.438M31.3952 70.438H68.5512" stroke="url(#paint0_linear_302_1237)" stroke-width="0.722168"/>
<path d="M50.5636 36.8972C58.922 36.8972 65.6978 30.1214 65.6978 21.763C65.6978 13.4046 58.922 6.62878 50.5636 6.62878C42.2053 6.62878 35.4294 13.4046 35.4294 21.763C35.4294 30.1214 42.2053 36.8972 50.5636 36.8972Z" fill="white" stroke="url(#paint1_linear_302_1237)" stroke-width="0.722168"/>
<defs>
<linearGradient id="paint0_linear_302_1237" x1="49.95" y1="32.3978" x2="49.95" y2="93.7527" gradientUnits="userSpaceOnUse">
<stop stop-color="#38180B"/>
<stop offset="1" stop-color="#3A1A0C"/>
</linearGradient>
<linearGradient id="paint1_linear_302_1237" x1="50.5636" y1="6.62878" x2="50.5636" y2="36.8972" gradientUnits="userSpaceOnUse">
<stop stop-color="#38180B"/>
<stop offset="1" stop-color="#3A1A0C"/>
</linearGradient>
</defs>
</svg>
