<svg width="100" height="100" viewBox="0 0 100 100" fill="none" xmlns="http://www.w3.org/2000/svg">
<path d="M75.2108 93.884H24.8293V79.5476L29.335 76.2708V72.994C29.335 72.994 30.1885 72.0596 31.4394 70.5364C34.3019 67.0508 39.2455 60.4816 40.804 54.9712C43.0436 47.0532 39.9847 32.443 39.9847 32.443H61.2844C61.2844 32.443 57.8064 44.5956 59.646 52.5136C60.9832 58.2708 66.0056 66.4824 68.6476 70.5364C69.6392 72.058 70.2956 72.994 70.2956 72.994V76.2708L75.2108 79.5476V93.884Z" fill="white"/>
<path d="M29.335 76.2708L24.8293 79.5476V93.884H75.2108V79.5476L70.2956 76.2708M29.335 76.2708V72.994C29.335 72.994 30.1885 72.0596 31.4394 70.5364M29.335 76.2708H70.2956M70.2956 76.2708V72.994C70.2956 72.994 69.6392 72.058 68.6476 70.5364M31.4394 70.5364C34.3019 67.0508 39.2455 60.4816 40.804 54.9712C43.0436 47.0532 39.9847 32.443 39.9847 32.443H61.2844C61.2844 32.443 57.8064 44.5956 59.646 52.5136C60.9832 58.2708 66.0056 66.4824 68.6476 70.5364M31.4394 70.5364H68.6476" stroke="url(#paint0_linear_302_1241)" stroke-width="0.723179"/>
<path d="M25.0703 4.82104H39.0678V19.3569H43.9132V4.82104H56.834V19.3569H61.6792V4.82104H75.1384V29.0475V32.2777L70.8316 37.123H30.9924L25.0703 32.2777V29.0475V4.82104Z" fill="white"/>
<path d="M25.0703 29.0475V32.2777L30.9924 37.123H70.8316L75.1384 32.2777V29.0475M25.0703 29.0475V4.82104H39.0678V19.3569H43.9132V4.82104H56.834V19.3569H61.6792V4.82104H75.1384V29.0475M25.0703 29.0475H75.1384" stroke="url(#paint1_linear_302_1241)" stroke-width="0.723179"/>
<defs>
<linearGradient id="paint0_linear_302_1241" x1="50.02" y1="32.443" x2="50.02" y2="93.884" gradientUnits="userSpaceOnUse">
<stop stop-color="#38180B"/>
<stop offset="1" stop-color="#3A1A0C"/>
</linearGradient>
<linearGradient id="paint1_linear_302_1241" x1="50.1044" y1="4.82104" x2="50.1044" y2="37.123" gradientUnits="userSpaceOnUse">
<stop stop-color="#38180B"/>
<stop offset="1" stop-color="#3A1A0C"/>
</linearGradient>
</defs>
</svg>
