<svg width="50" height="50" viewBox="0 0 50 50" fill="none" xmlns="http://www.w3.org/2000/svg">
  <path
    d="M42.6996 49.4883H7.54336V42.457H42.6996V49.4883ZM41.4926 36.934H8.75039C9.2094 38.0983 9.47271 39.3306 9.52969 40.5809H40.7133C40.7703 39.3306 41.0336 38.0983 41.4926 36.934ZM25.1215 8.68477C24.0101 8.68477 22.9442 9.12628 22.1583 9.91217C21.3724 10.6981 20.9309 11.764 20.9309 12.8754C20.9309 18.7535 25.1215 24.5168 25.1215 24.5168C25.1215 24.5168 29.3121 18.7535 29.3121 12.8754C29.3121 11.764 28.8706 10.6981 28.0847 9.91217C27.2988 9.12628 26.2329 8.68477 25.1215 8.68477ZM26.059 6.88242V4.61602H28.2105V2.74102H26.059V0H24.184V2.74102H22.0324V4.61602H24.184V6.88711C24.805 6.78864 25.4375 6.78706 26.059 6.88242ZM35.6262 12.9012C34.0923 12.8993 32.5734 13.2025 31.1578 13.793C30.7793 19.8574 26.8137 25.377 26.6367 25.6207L26.059 26.4129V35.0566H42.4652C44.407 31.9922 47.2441 30.0867 47.2441 24.5098C47.2423 21.4298 46.0174 18.4767 43.8388 16.2996C41.6601 14.1225 38.7061 12.8997 35.6262 12.9V12.9012ZM19.084 13.793C17.3186 13.0585 15.3992 12.771 13.4961 12.956C11.593 13.141 9.76493 13.7927 8.17403 14.8534C6.58313 15.9141 5.27857 17.351 4.37601 19.0367C3.47346 20.7224 3.00082 22.6047 3 24.5168C3 30.0891 5.83711 31.9957 7.77891 35.0637H24.184V26.4129L23.6051 25.6172C23.4281 25.377 19.4637 19.8574 19.084 13.793Z"
    fill="#E9E9E9" />
</svg>