<svg width="100" height="100" viewBox="0 0 100 100" fill="none" xmlns="http://www.w3.org/2000/svg">
<path d="M36.4917 25.2832C35.9335 23.7496 35.6282 22.0942 35.6282 20.3697C35.6282 12.4335 42.0617 6 49.9979 6C57.934 6 64.3675 12.4335 64.3675 20.3697C64.3675 22.6943 63.8119 24.8979 62.8271 26.8465C64.2443 26.9446 65.6214 27.5831 66.6254 28.7306C72.0804 34.9649 76.8542 43.8539 76.8542 54.1571C76.8542 61.5231 74.3182 66.9814 70.8915 70.9143L77.3999 72.0557C80.0574 72.5218 81.9957 74.8297 81.9957 77.5278V87.9444C81.9957 89.4179 81.4104 90.831 80.3685 91.8728C79.3267 92.9147 77.9136 93.5 76.4401 93.5H23.5556C20.4874 93.5 18 91.0126 18 87.9444V77.5278C18 74.8329 19.934 72.5267 22.5878 72.0572L28.4588 71.0186C24.9853 67.0783 22.4071 61.5894 22.4071 54.1571C22.4071 46.1185 25.5222 39.1179 29.1758 33.7529C31.4724 30.3807 34.0724 27.5176 36.4917 25.2832Z" fill="#34364C"/>
<path d="M52.7223 53.4225H47.1668C47.1668 43.2214 50.2608 33.0373 57.1058 25.5829C58.1784 24.1229 58.8121 22.3203 58.8121 20.3697C58.8121 15.5017 54.8659 11.5555 49.998 11.5555C45.1301 11.5555 41.1839 15.5017 41.1839 20.3697C41.1839 22.7714 42.1446 24.9487 43.7023 26.5385C38.1965 30.4636 27.9627 40.9846 27.9627 54.1571C27.9627 67.4504 38.3851 72.8322 43.8527 73.9371L23.5557 77.5278V87.9444H76.4402V77.5278L55.6619 73.8836C61.1914 72.6665 71.2987 67.2479 71.2987 54.1571C71.2987 45.5854 67.3057 37.9444 62.4445 32.3889C57.1058 36.5555 52.7223 46.2778 52.7223 53.4225Z" fill="#F4F7FA"/>
</svg>
