<svg width="100" height="100" viewBox="0 0 100 100" fill="none" xmlns="http://www.w3.org/2000/svg">
<path d="M32.4271 56.7875C31.7643 57.6924 30.9733 58.6346 30.0515 59.6039C26.7979 63.0247 22.8078 65.8393 20.2325 67.3108L19.7992 67.5585C18.0682 68.5475 17 70.3883 17 72.382V85.7778C17 88.846 19.4874 91.3333 22.5556 91.3333H76.7222C79.7904 91.3333 82.2778 88.846 82.2778 85.7778V72.382C82.2778 70.3883 81.2096 68.5476 79.4786 67.5585L79.0454 67.3108C76.4701 65.8393 72.4799 63.0247 69.2263 59.6039C68.3044 58.6346 67.5135 57.6924 66.8507 56.7875C69.2889 56.2001 71.1006 54.0047 71.1006 51.3862V42.3429C71.1006 40.5378 70.2235 38.8451 68.7488 37.8042L66.3892 36.1386C67.7507 33.4932 68.5211 30.4914 68.5211 27.3122C68.5211 16.6464 59.8749 8 49.209 8C38.5432 8 29.8968 16.6464 29.8968 27.3122C29.8968 30.6701 30.7561 33.8294 32.2632 36.58L30.529 37.8042C29.0543 38.8451 28.1772 40.5378 28.1772 42.3429V51.3862C28.1772 54.0047 29.9889 56.2001 32.4271 56.7875Z" fill="#34364C"/>
<path d="M62.9657 27.3122C62.9657 31.3019 61.2672 34.8951 58.5539 37.4078L65.5451 42.3429V51.3862H58.7009C59.0309 55.578 61.7205 59.7733 65.2008 63.4326C68.8943 67.316 73.338 70.448 76.2891 72.1344L76.7223 72.3819V85.7778H22.5557V72.3819L22.9889 72.1344C25.94 70.448 30.3837 67.316 34.0772 63.4326C37.5575 59.7733 40.2471 55.578 40.5771 51.3862H33.7329V42.3429L40.2441 37.7467C37.3104 35.2239 35.4525 31.485 35.4525 27.3122C35.4525 19.7146 41.6115 13.5555 49.2091 13.5555C56.8066 13.5555 62.9657 19.7146 62.9657 27.3122Z" fill="#F4F7FA"/>
</svg>
