<svg width="100" height="100" viewBox="0 0 100 100" fill="none" xmlns="http://www.w3.org/2000/svg">
<path d="M44.8911 5.03485C46.7197 4.82922 48.5317 5.54248 49.7294 6.93952L61.064 20.1596C74.0807 23.3763 81.6225 33.1777 85.7937 45.4135C90.0919 58.0217 91.1551 74.028 91.1551 90.4418C91.1551 93.51 88.6678 95.9974 85.5996 95.9974H33.8008C30.8515 95.9974 28.4161 93.6927 28.2537 90.7477C28.1087 88.1198 28.7135 83.5598 30.556 78.9021L30.5899 78.8168C25.3575 81.6255 19.5507 80.9527 15.24 77.8835C10.0013 74.1536 7.08849 66.8521 10.4165 59.6416C12.8163 54.4418 15.4028 51.6885 17.3595 49.606C19.1872 47.6609 19.9489 46.8053 20.4876 44.65C23.7547 31.582 30.4758 24.0539 37.6939 20.6184C37.5894 19.1296 37.6743 17.6953 37.8569 16.3931C38.3115 13.1517 39.4431 10.1563 40.5965 7.9665C41.4542 6.33832 43.0624 5.24048 44.8911 5.03485Z" fill="#34364C"/>
<path fill-rule="evenodd" clip-rule="evenodd" d="M58.0588 25.1898L45.5117 10.5555C43.6955 14.0036 41.9348 20.0892 44.4663 24.4822C43.2375 24.5917 42.0632 24.7995 41.155 25.1641C35.3605 27.4895 29.0023 33.4974 25.8773 45.9974C24.9724 49.6168 23.3438 51.3502 21.4081 53.4102C19.5823 55.3535 17.4831 57.5874 15.4606 61.9696C11.2939 70.9974 22.5388 80.0252 30.7384 71.8256C35.3482 67.2157 39.3778 65.3125 42.7609 63.7149C47.63 61.4152 51.1602 59.7479 53.1541 51.5529C54.1028 55.3756 53.7234 64.397 44.6159 69.9016C35.5084 75.4061 33.611 87.0014 33.8007 90.4417H85.5995C85.5995 57.7796 81.2752 29.5596 58.0588 25.1898Z" fill="#F4F7FA"/>
<path d="M42.5436 45.9974C44.8448 45.9974 46.7103 44.1319 46.7103 41.8307C46.7103 39.5295 44.8448 37.6641 42.5436 37.6641C40.2424 37.6641 38.377 39.5295 38.377 41.8307C38.377 44.1319 40.2424 45.9974 42.5436 45.9974Z" fill="#34364C"/>
</svg>
