<svg width="100" height="100" viewBox="0 0 100 100" fill="none" xmlns="http://www.w3.org/2000/svg">
<path d="M36.4444 8C37.4564 8 38.4051 8.27054 39.2222 8.74324C40.0393 8.27054 40.9881 8 42 8H57.2778C58.2897 8 59.2385 8.27054 60.0556 8.74324C60.8728 8.27054 61.8214 8 62.8333 8H76.7222C79.7904 8 82.2778 10.4873 82.2778 13.5556V26.0556C82.2778 27.8042 81.4545 29.4508 80.0556 30.5L71.4832 36.9293L73.9104 58.7754C74.5531 64.5592 77.2451 67.4935 81.1667 72.7222C81.8879 73.6839 82.2778 74.8535 82.2778 76.0555V87.1667C82.2778 90.2349 79.7904 92.7222 76.7222 92.7222H22.5556C19.4874 92.7222 17 90.2349 17 87.1667V76.0555C17 74.8535 17.3899 73.6839 18.1111 72.7222C22.0326 67.4935 24.7247 64.5592 25.3674 58.7754L27.7947 36.9293L19.2222 30.5C17.8233 29.4508 17 27.8042 17 26.0556V13.5556C17 10.4873 19.4874 8 22.5556 8H36.4444Z" fill="#34364C"/>
<path d="M22.5557 13.5555H36.4446V21.8889H42.0001V13.5555H57.2779V21.8889H62.8334V13.5555H76.7223V26.0555L65.6112 34.3889L68.389 59.3889H30.889L33.6668 34.3889L22.5557 26.0555V13.5555Z" fill="#F4F7FA"/>
<path d="M30.889 64.9445H68.389L76.7223 76.0556V87.1667H22.5557V76.0556L30.889 64.9445Z" fill="#F4F7FA"/>
</svg>
