<svg width="100" height="100" viewBox="0 0 100 100" fill="none" xmlns="http://www.w3.org/2000/svg">
<path fill-rule="evenodd" clip-rule="evenodd" d="M40.3884 9.38203C40.4822 6.38281 42.9406 4 45.9413 4H54.2747C57.2754 4 59.7338 6.38281 59.8274 9.38203L59.8763 10.9444H62.608C65.6762 10.9444 68.1636 13.4317 68.1636 16.5V19.8696C74.2194 18.4992 80.7556 19.4144 86.3034 24.0376C97.8287 33.6421 96.7683 53.7751 83.0902 64.7874C79.7894 67.4449 77.1962 69.6479 75.4105 71.9181C75.0031 72.436 74.6541 72.9371 74.3604 73.4275L79.9908 74.189C82.7462 74.5617 84.8018 76.914 84.8018 79.6944V90.1111C84.8018 93.1793 82.3144 95.6667 79.2462 95.6667H20.9698C17.9016 95.6667 15.4143 93.1793 15.4143 90.1111V79.6944C15.4143 76.914 17.4698 74.5617 20.2252 74.189L25.8556 73.4275C25.5619 72.9371 25.2129 72.436 24.8055 71.9181C23.0198 69.6479 20.4266 67.4449 17.1258 64.7874C3.44776 53.7751 2.3873 33.6421 13.9126 24.0376C19.4604 19.4144 25.9966 18.4992 32.0524 19.8696V16.5C32.0524 13.4317 34.5398 10.9444 37.608 10.9444H40.3397L40.3884 9.38203Z" fill="#34364C"/>
<path fill-rule="evenodd" clip-rule="evenodd" d="M45.941 9.55554H54.2743L54.4912 16.5H62.6076V24.8333H54.7517L55.1333 34.268C55.2857 34.0886 55.4425 33.9128 55.604 33.741C63.1918 25.6765 74.4419 21.385 82.7465 28.3055C91.0799 35.25 91.0799 51.2222 79.6058 60.46C73.1063 65.6928 67.2844 70.7374 67.5714 78.1155L79.2458 79.6944V90.1111H20.9694V79.6944L32.6439 78.1155C32.9308 70.7374 27.109 65.6928 20.6094 60.46C9.13542 51.2222 9.13542 35.25 17.4688 28.3055C25.7733 21.385 37.0235 25.6765 44.6112 33.741C44.7728 33.9128 44.9296 34.0886 45.0819 34.268L45.4635 24.8333H37.6076V16.5H45.7239L45.941 9.55554ZM38.091 41.4626C43.1836 49.8043 43.8576 59.5555 43.8576 63.7961C41.305 63.8007 31.6824 59.5674 26.5876 52.6175C22.9199 47.6142 21.9635 40.191 25.1076 37.309C28.2518 34.4271 34.9081 36.2492 38.091 41.4626ZM62.1243 41.4626C57.0317 49.8043 56.3576 59.5555 56.3576 63.7961C58.9103 63.8007 68.5329 59.5674 73.6276 52.6175C77.2954 47.6142 78.2518 40.191 75.1076 37.309C71.9635 34.4271 65.3071 36.2492 62.1243 41.4626Z" fill="#F4F7FA"/>
</svg>
