<svg width="100" height="100" viewBox="0 0 100 100" fill="none" xmlns="http://www.w3.org/2000/svg">
<path d="M24.6111 17.5C24.6111 18.8713 24.8317 20.1907 25.2393 21.4247L22.4971 22.7111C20.2236 20.3546 17.0331 18.8889 13.5 18.8889C6.59644 18.8889 1 24.4853 1 31.3889C1 37.5428 5.44694 42.6581 11.3027 43.6964L17.8889 66.2778C18.0264 66.7492 18.2257 67.2003 18.4818 67.6192L22.2778 73.8308L22.2544 73.835C19.6007 74.3044 17.6667 76.6107 17.6667 79.3056V89.7222C17.6667 92.7904 20.154 95.2778 23.2222 95.2778H76.1068C77.5803 95.2778 78.9933 94.6925 80.0351 93.6506C81.0771 92.6088 81.6624 91.1957 81.6624 89.7222V79.3056C81.6624 76.6075 79.724 74.2996 77.0665 73.8335L76.9549 73.8139L80.7404 67.6192C80.9965 67.2003 81.1958 66.7492 81.3333 66.2778L87.9196 43.6964C93.7753 42.6581 98.2222 37.5428 98.2222 31.3889C98.2222 24.4853 92.6258 18.8889 85.7222 18.8889C82.1847 18.8889 78.9906 20.3583 76.7165 22.72L73.9792 21.436C74.3892 20.1988 74.6111 18.8754 74.6111 17.5C74.6111 10.5964 69.0147 5 62.1111 5C55.2075 5 49.6111 10.5964 49.6111 17.5C49.6111 10.5964 44.0147 5 37.1111 5C30.2075 5 24.6111 10.5964 24.6111 17.5Z" fill="#34364C"/>
<path d="M39.604 23.9836C42.2079 22.9819 44.0557 20.4567 44.0557 17.5C44.0557 13.6647 40.9465 10.5555 37.1112 10.5555C33.2759 10.5555 30.1668 13.6647 30.1668 17.5C30.1668 21.0443 32.8219 23.9683 36.2516 24.3918L33.1547 49.4444L18.2254 36.4779C19.5905 35.2097 20.4446 33.399 20.4446 31.3889C20.4446 27.5536 17.3354 24.4444 13.5001 24.4444C9.6648 24.4444 6.55566 27.5536 6.55566 31.3889C6.55566 35.2242 9.6648 38.3333 13.5001 38.3333C14.1752 38.3333 14.8279 38.2369 15.4451 38.0573L23.2223 64.7222L31.2648 77.8828L23.2223 79.3055V89.7222H76.1069V79.3055L67.9611 77.8769L76.0001 64.7222L83.7773 38.0573C84.3946 38.2369 85.0472 38.3333 85.7223 38.3333C89.5576 38.3333 92.6668 35.2242 92.6668 31.3889C92.6668 27.5536 89.5576 24.4444 85.7223 24.4444C81.8871 24.4444 78.7779 27.5536 78.7779 31.3889C78.7779 33.399 79.6319 35.2097 80.9971 36.4779L66.0678 49.4444L62.9708 24.3918C66.4005 23.9683 69.0557 21.0443 69.0557 17.5C69.0557 13.6647 65.9465 10.5555 62.1112 10.5555C58.2759 10.5555 55.1668 13.6647 55.1668 17.5C55.1668 20.4567 57.0146 22.9819 59.6184 23.9836L49.6112 46.6667L39.604 23.9836Z" fill="#F4F7FA"/>
</svg>
