<svg width="100" height="100" viewBox="0 0 100 100" fill="none" xmlns="http://www.w3.org/2000/svg">
<path d="M54.3884 15.418C54.3884 17.788 52.4592 19.7154 50.072 19.7154C47.6848 19.7154 45.7556 17.788 45.7556 15.418C45.7556 13.0479 47.6848 11.1205 50.072 11.1205C52.4592 11.1205 54.3884 13.0479 54.3884 15.418Z" fill="white" stroke="black" stroke-width="2"/>
<rect x="45.6526" y="19.531" width="8.6947" height="0.615763" rx="0.307881" fill="white" stroke="black" stroke-width="0.615763"/>
<path d="M37.2124 71.6647V71.1168C40.6131 67.1296 42.6664 61.9618 42.6664 56.3179C42.6664 52.0629 41.4992 48.0775 39.4666 44.6648H60.5336C58.5011 48.0775 57.3338 52.0629 57.3338 56.3179C57.3338 61.9618 59.3871 67.1296 62.7878 71.1168V71.6647H37.2124Z" fill="white" stroke="black" stroke-width="2"/>
<path fill-rule="evenodd" clip-rule="evenodd" d="M50 19.839H47.3544L36.291 35.6881C35.3235 37.3369 34.6836 41.2405 39.8641 43.6649H50H60.1359C65.3164 41.2405 64.6765 37.3369 63.709 35.6881L52.6456 19.839H50Z" fill="white"/>
<path d="M47.3544 19.839V18.839H46.8329L46.5344 19.2666L47.3544 19.839ZM36.291 35.6881L35.471 35.1157L35.4485 35.148L35.4286 35.182L36.291 35.6881ZM39.8641 43.6649L39.4403 44.5706L39.6417 44.6649H39.8641V43.6649ZM60.1359 43.6649V44.6649H60.3583L60.5598 44.5706L60.1359 43.6649ZM63.709 35.6881L64.5715 35.182L64.5515 35.148L64.529 35.1157L63.709 35.6881ZM52.6456 19.839L53.4656 19.2666L53.1671 18.839H52.6456V19.839ZM47.3544 20.839H50V18.839H47.3544V20.839ZM37.111 36.2605L48.1744 20.4114L46.5344 19.2666L35.471 35.1157L37.111 36.2605ZM40.288 42.7592C37.9145 41.6484 37.0234 40.2819 36.7429 39.146C36.4503 37.9607 36.7753 36.8387 37.1535 36.1942L35.4286 35.182C34.8392 36.1863 34.3606 37.8405 34.8012 39.6254C35.2541 41.4595 36.6332 43.257 39.4403 44.5706L40.288 42.7592ZM50 42.6649H39.8641V44.6649H50V42.6649ZM50 44.6649H60.1359V42.6649H50V44.6649ZM60.5598 44.5706C63.3668 43.257 64.746 41.4595 65.1988 39.6254C65.6395 37.8405 65.1608 36.1863 64.5715 35.182L62.8465 36.1942C63.2247 36.8387 63.5498 37.9607 63.2571 39.146C62.9767 40.2819 62.0855 41.6484 59.712 42.7592L60.5598 44.5706ZM64.529 35.1157L53.4656 19.2666L51.8256 20.4114L62.889 36.2605L64.529 35.1157ZM52.6456 18.839H50V20.839H52.6456V18.839Z" fill="black"/>
<rect x="35.9041" y="44.6631" width="28.1922" height="1.99659" rx="0.998293" fill="white" stroke="black" stroke-width="1.99659"/>
<rect x="33.2598" y="73.6648" width="33.4804" height="3.32367" fill="white" stroke="black" stroke-width="2"/>
<rect x="28.6057" y="78.9884" width="42.7885" height="3.58968" fill="white" stroke="black" stroke-width="2"/>
<rect x="25.6389" y="84.5781" width="48.7222" height="3.58966" fill="white" stroke="black" stroke-width="2"/>
</svg>
