<svg width="100" height="100" viewBox="0 0 100 100" fill="none" xmlns="http://www.w3.org/2000/svg">
<path d="M35.8492 36.908C36.3008 37.0977 37.204 37.6193 37.204 38.1885C37.204 38.7576 35.0363 54.835 33.9524 62.8026C33.7717 63.3243 33.2479 64.4104 32.5975 64.5811C31.9472 64.7518 43.8879 64.6522 49.9396 64.5811C55.9912 64.6522 67.9319 64.7518 67.2816 64.5811C66.6313 64.4104 66.1074 63.3243 65.9268 62.8026C64.8429 54.835 62.6751 38.7576 62.6751 38.1885C62.6751 37.6193 63.5784 37.0977 64.03 36.908H49.9396H35.8492Z" fill="white" stroke="black" stroke-width="2"/>
<rect x="31.2266" y="33.9005" width="37.426" height="2.00743" rx="1.00372" fill="white" stroke="black" stroke-width="2"/>
<rect x="33.1992" y="63.004" width="33.4804" height="3.34268" fill="white" stroke="black" stroke-width="2"/>
<rect x="28.5452" y="68.3467" width="42.7885" height="3.60963" fill="white" stroke="black" stroke-width="2"/>
<rect x="25.5784" y="73.9563" width="48.7222" height="3.60963" fill="white" stroke="black" stroke-width="2"/>
<path d="M69.2632 20.9076L68.3598 33.4343L63.2848 33.0303H31.795L30.0049 20.9877H39.1182L39.6064 30.1282H45.5193V20.9877H54.1986V30.1282H63.2848L63.2006 21.0052L69.2632 20.9076Z" fill="#F1F1F1"/>
<path d="M67.4506 28.1325L67.8831 21.0048H69.1991L68.7289 28.1325H68.7382L68.6041 30.0257L68.5411 30.9798H68.5364L68.3602 33.4663H31.5061L29.9482 21.0351H36.8306L37.3898 28.1325H41.4331L40.8309 21.0351H50.2941V28.1325H56.101V21.0351H64.5749V28.1325H67.4506Z" fill="white" stroke="black" stroke-width="2"/>
</svg>
