<svg width="100" height="100" viewBox="0 0 100 100" fill="none" xmlns="http://www.w3.org/2000/svg">
<path d="M66.8566 32.2329C66.8566 35.013 65.0508 38.6717 61.9324 41.6773C58.8402 44.6577 54.613 46.8396 49.9995 46.8396C45.386 46.8396 41.1588 44.6577 38.0665 41.6773C34.9482 38.6717 33.1423 35.013 33.1423 32.2329C33.1423 29.5438 34.8514 26.9677 37.9107 25.0147C40.9585 23.0689 45.2298 21.8328 49.9995 21.8328C54.7692 21.8328 59.0405 23.0689 62.0883 25.0147C65.1476 26.9677 66.8566 29.5438 66.8566 32.2329Z" fill="white" stroke="black" stroke-width="2"/>
<path d="M49.6356 15.1545V11.5023H50.1296V15.1545V16.1545H51.1296H54.7819V16.6485H51.1296H50.1296V17.6485V21.3008H49.6356V17.6485V16.6485H48.6356H44.9834V16.1545H48.6356H49.6356V15.1545Z" fill="white" stroke="black" stroke-width="2"/>
<rect x="35.2673" y="42.4914" width="29.2304" height="0.958399" rx="0.479199" fill="white" stroke="black" stroke-width="0.958399"/>
<path d="M37.095 71.9357V71.3799C40.496 67.3788 42.549 62.1932 42.549 56.5305C42.549 52.2588 41.3806 48.2578 39.346 44.8322H60.4194C58.3848 48.2578 57.2164 52.2588 57.2164 56.5305C57.2164 62.1932 59.2694 67.3788 62.6704 71.3799V71.9357H37.095Z" fill="white" stroke="black" stroke-width="2"/>
<rect x="35.7881" y="44.8322" width="28.1888" height="2.00743" rx="1.00372" fill="white" stroke="black" stroke-width="2"/>
<rect x="33.1423" y="73.9357" width="33.4804" height="3.34268" fill="white" stroke="black" stroke-width="2"/>
<rect x="28.4883" y="79.2783" width="42.7885" height="3.60963" fill="white" stroke="black" stroke-width="2"/>
<rect x="25.5215" y="84.8879" width="48.7222" height="3.60963" fill="white" stroke="black" stroke-width="2"/>
<circle cx="49.9856" cy="16.3544" r="1.76196" fill="white" stroke="black" stroke-width="2"/>
</svg>
