<svg width="100" height="100" viewBox="0 0 100 100" fill="none" xmlns="http://www.w3.org/2000/svg">
<path d="M45.484 12.6976C43.0688 12.6976 43.6212 17.6223 44.1993 20.0846C43.5469 21.9428 41.381 22.7649 40.1225 23.7184C38.8639 24.6719 39.9699 26.083 37.7197 27.1891C35.4695 28.2951 33.0668 30.3165 28.7571 33.749C24.4474 37.1815 21.8539 38.4019 19.1079 38.7452C16.9111 39.0198 17.023 40.6902 17.3535 41.4912L23.9134 48.8138H26.8501C27.0408 47.746 28.3375 45.7627 31.3124 45.3432C34.2872 44.9237 41.0759 46.4874 45.2331 44.3516C48.5588 42.643 50.7632 39.1901 51.4497 37.6773L50.3636 40.8515C47.6178 48.4024 35.9911 52.2923 30.5209 53.2934C28.5474 57.3692 33.6633 65.6272 36.4679 69.2467V70.5287H65.4609V69.3525C69.5205 65.2928 71.8318 56.6526 72.4799 52.84C72.6268 56.6087 70.0016 64.2129 68.6707 67.5439L77.7253 70.5704C83.1139 62.3437 85.5283 48.5431 78.4118 34.6704C72.7034 23.5426 61.107 20.0606 56.0223 19.7106L55.7615 21.1766C51.7533 14.2393 47.2397 12.6334 45.484 12.6976Z" fill="white" stroke="black" stroke-width="2"/>
<rect x="33.6882" y="71.3851" width="33.4804" height="3.34268" fill="white" stroke="black" stroke-width="2"/>
<rect x="29.0342" y="76.7278" width="42.7885" height="3.60963" fill="white" stroke="black" stroke-width="2"/>
<rect x="26.0674" y="82.3374" width="48.7222" height="3.60963" fill="white" stroke="black" stroke-width="2"/>
</svg>
