<svg width="100" height="100" viewBox="0 0 100 100" fill="none" xmlns="http://www.w3.org/2000/svg">
<path d="M59.6243 28.9924C59.6243 33.5836 55.4237 37.4909 50.0002 37.4909C44.5766 37.4909 40.376 33.5836 40.376 28.9924C40.376 24.4012 44.5766 20.4939 50.0002 20.4939C55.4237 20.4939 59.6243 24.4012 59.6243 28.9924Z" fill="white" stroke="black" stroke-width="2"/>
<path d="M37.2124 62.587V62.0313C40.6134 58.0302 42.6664 52.8446 42.6664 47.1818C42.6664 42.9102 41.498 38.9092 39.4634 35.4835H60.5368C58.5022 38.9092 57.3338 42.9102 57.3338 47.1818C57.3338 52.8446 59.3869 58.0302 62.7878 62.0313V62.587H37.2124Z" fill="white" stroke="black" stroke-width="2"/>
<rect x="35.9058" y="35.4835" width="28.1888" height="2.00743" rx="1.00372" fill="white" stroke="black" stroke-width="2"/>
<rect x="33.2598" y="64.587" width="33.4804" height="3.34269" fill="white" stroke="black" stroke-width="2"/>
<rect x="28.6057" y="69.9297" width="42.7885" height="3.60963" fill="white" stroke="black" stroke-width="2"/>
<rect x="25.6389" y="75.5393" width="48.7222" height="3.60963" fill="white" stroke="black" stroke-width="2"/>
</svg>
