<svg width="100" height="100" viewBox="0 0 100 100" fill="none" xmlns="http://www.w3.org/2000/svg">
<rect x="35.385" y="39.3908" width="29.2304" height="0.958399" rx="0.479199" fill="white" stroke="black" stroke-width="0.958399"/>
<path d="M37.2124 68.8351V68.2793C40.6134 64.2782 42.6664 59.0926 42.6664 53.4299C42.6664 49.1582 41.498 45.1572 39.4634 41.7316H60.5368C58.5022 45.1572 57.3338 49.1582 57.3338 53.4299C57.3338 59.0926 59.3869 64.2782 62.7878 68.2793V68.8351H37.2124Z" fill="white" stroke="black" stroke-width="2"/>
<rect x="35.9058" y="41.7316" width="28.1888" height="2.00743" rx="1.00372" fill="white" stroke="black" stroke-width="2"/>
<rect x="33.2598" y="70.8351" width="33.4804" height="3.34268" fill="white" stroke="black" stroke-width="2"/>
<rect x="28.6057" y="76.1777" width="42.7885" height="3.60963" fill="white" stroke="black" stroke-width="2"/>
<rect x="25.6389" y="81.7874" width="48.7222" height="3.60963" fill="white" stroke="black" stroke-width="2"/>
<mask id="path-7-inside-1_2_2193" fill="white">
<path fill-rule="evenodd" clip-rule="evenodd" d="M53.3896 21.375C54.2309 20.5333 54.7511 19.3708 54.7511 18.0867C54.7511 15.5175 52.6684 13.4348 50.0992 13.4348C47.5301 13.4348 45.4474 15.5175 45.4474 18.0867C45.4474 19.3708 45.9676 20.5333 46.8088 21.375L42.2876 26.7322L50.0992 31.779L57.9109 26.7322L53.3896 21.375Z"/>
</mask>
<path fill-rule="evenodd" clip-rule="evenodd" d="M53.3896 21.375C54.2309 20.5333 54.7511 19.3708 54.7511 18.0867C54.7511 15.5175 52.6684 13.4348 50.0992 13.4348C47.5301 13.4348 45.4474 15.5175 45.4474 18.0867C45.4474 19.3708 45.9676 20.5333 46.8088 21.375L42.2876 26.7322L50.0992 31.779L57.9109 26.7322L53.3896 21.375Z" fill="white"/>
<path d="M53.3896 21.375L51.975 19.9613L50.6762 21.2609L51.8612 22.665L53.3896 21.375ZM46.8088 21.375L48.3373 22.665L49.5223 21.2609L48.2235 19.9613L46.8088 21.375ZM42.2876 26.7322L40.7592 25.4422L39.2935 27.1789L41.2023 28.4121L42.2876 26.7322ZM50.0992 31.779L49.0139 33.4589L50.0992 34.1601L51.1846 33.4589L50.0992 31.779ZM57.9109 26.7322L58.9962 28.4121L60.905 27.1789L59.4393 25.4422L57.9109 26.7322ZM52.7511 18.0867C52.7511 18.8192 52.4567 19.4792 51.975 19.9613L54.8043 22.7888C56.005 21.5874 56.7511 19.9223 56.7511 18.0867H52.7511ZM50.0992 15.4348C51.5638 15.4348 52.7511 16.6221 52.7511 18.0867H56.7511C56.7511 14.413 53.773 11.4348 50.0992 11.4348V15.4348ZM47.4474 18.0867C47.4474 16.6221 48.6347 15.4348 50.0992 15.4348V11.4348C46.4255 11.4348 43.4474 14.413 43.4474 18.0867H47.4474ZM48.2235 19.9613C47.7418 19.4792 47.4474 18.8192 47.4474 18.0867H43.4474C43.4474 19.9223 44.1935 21.5874 45.3942 22.7888L48.2235 19.9613ZM45.2804 20.0851L40.7592 25.4422L43.816 28.0221L48.3373 22.665L45.2804 20.0851ZM41.2023 28.4121L49.0139 33.4589L51.1846 30.0991L43.3729 25.0523L41.2023 28.4121ZM51.1846 33.4589L58.9962 28.4121L56.8256 25.0523L49.0139 30.0991L51.1846 33.4589ZM59.4393 25.4422L54.9181 20.0851L51.8612 22.665L56.3825 28.0221L59.4393 25.4422Z" fill="black" mask="url(#path-7-inside-1_2_2193)"/>
<path d="M37.5079 39.8701C36.6384 37.479 34.0457 31.9853 30.631 29.1397C27.2162 26.294 30.1172 25.6221 31.9945 25.6419C32.9801 25.849 35.3996 26.5507 37.1937 27.7014C38.3358 28.4339 38.2698 27.3732 38.1898 26.0876C38.1128 24.8488 38.0227 23.4012 38.9877 23.1472C40.9377 22.6341 42.4806 23.9866 45.2309 26.3975L45.3014 26.4593C46.7411 27.7213 47.1088 26.5374 47.5574 25.0929C47.9796 23.7335 48.4735 22.1432 50.0001 22.1432C51.5267 22.1432 52.0206 23.7335 52.4428 25.0929C52.8915 26.5374 53.2592 27.7213 54.6989 26.4593L54.7694 26.3975C57.5197 23.9866 59.0626 22.6341 61.0125 23.1472C61.9775 23.4012 61.8875 24.8488 61.8104 26.0876C61.7304 27.3732 61.6645 28.4339 62.8066 27.7014C64.6006 26.5507 67.0202 25.849 68.0057 25.6419C69.8831 25.6221 72.784 26.294 69.3693 29.1397C65.9545 31.9853 63.3618 37.479 62.4923 39.8701H37.5079Z" fill="white" stroke="black" stroke-width="2"/>
</svg>
