<svg width="101" height="100" viewBox="0 0 101 100" fill="none" xmlns="http://www.w3.org/2000/svg">
<path fill-rule="evenodd" clip-rule="evenodd" d="M20.5002 81.3333C28.0335 79.1778 42.9668 82.2889 50.5002 76.8889C58.0335 82.2889 72.9668 79.1778 80.5002 81.3333C80.5002 81.3333 84.1668 82.5333 87.1668 85.7778C85.6557 87.9333 83.5002 87.9778 80.5002 86.8889C72.9668 84.7333 58.0335 87.9111 50.5002 84.6667C42.9668 87.9111 28.0335 84.7333 20.5002 86.8889C17.5002 87.9778 15.3446 87.9333 13.8335 85.7778C16.8335 82.5333 20.5002 81.3333 20.5002 81.3333Z" fill="white" stroke="black" stroke-width="1.5" stroke-linejoin="round"/>
<path fill-rule="evenodd" clip-rule="evenodd" d="M33.8334 72.4444C39.389 78 61.6112 78 67.1668 72.4444C68.2779 69.1111 67.1668 68 67.1668 68C67.1668 62.4444 61.6112 59.1111 61.6112 59.1111C73.8334 55.7778 74.9445 33.5555 50.5001 24.6667C26.0556 33.5555 27.1668 55.7778 39.389 59.1111C39.389 59.1111 33.8334 62.4444 33.8334 68C33.8334 68 32.7223 69.1111 33.8334 72.4444Z" fill="white" stroke="black" stroke-width="1.5" stroke-linejoin="round"/>
<path fill-rule="evenodd" clip-rule="evenodd" d="M56.0557 19.1111C56.0557 20.5845 55.4704 21.9976 54.4285 23.0395C53.3866 24.0813 51.9736 24.6667 50.5001 24.6667C49.0267 24.6667 47.6136 24.0813 46.5718 23.0395C45.5299 21.9976 44.9446 20.5845 44.9446 19.1111C44.9446 17.6377 45.5299 16.2246 46.5718 15.1827C47.6136 14.1409 49.0267 13.5555 50.5001 13.5555C51.9736 13.5555 53.3866 14.1409 54.4285 15.1827C55.4704 16.2246 56.0557 17.6377 56.0557 19.1111Z" fill="white" stroke="black" stroke-width="1.5" stroke-linejoin="round"/>
<path d="M39.3891 59.1111H61.6113M33.8335 68H67.1668M50.5002 35.7778V46.8889M44.9446 41.3333H56.0557" stroke="black" stroke-width="1.5" stroke-linecap="round"/>
</svg>
