<svg width="101" height="100" viewBox="0 0 101 100" fill="none" xmlns="http://www.w3.org/2000/svg">
<path d="M50.5 25.8445V13.3333" stroke="black" stroke-width="1.5" stroke-linecap="round"/>
<path d="M44.9446 17.7778H56.0557" stroke="black" stroke-width="1.5" stroke-linecap="round"/>
<path fill-rule="evenodd" clip-rule="evenodd" d="M50.5 55.5556C50.5 55.5556 60.5 38.8889 57.1667 32.2222C57.1667 32.2222 54.9445 26.6667 50.5 26.6667C46.0556 26.6667 43.8333 32.2222 43.8333 32.2222C40.5 38.8889 50.5 55.5556 50.5 55.5556Z" fill="white" stroke="black" stroke-width="1.5"/>
<path fill-rule="evenodd" clip-rule="evenodd" d="M28.2779 82.2222C40.5001 90 60.5001 90 72.7223 82.2222V66.6667C72.7223 66.6667 92.7223 56.6667 86.0556 43.3333C77.1667 28.8889 56.0556 35.5556 50.5001 52.2222C44.9445 35.5556 23.8334 28.8889 14.9445 43.3333C8.27786 56.6667 28.2779 66.6667 28.2779 66.6667V82.2222Z" fill="white"/>
<path d="M50.5001 52.2222C56.0556 35.5556 77.1667 28.8889 86.0556 43.3333C92.7223 56.6667 72.7223 66.6667 72.7223 66.6667V82.2222C60.5001 90 40.5001 90 28.2779 82.2222V66.6667C28.2779 66.6667 8.27786 56.6667 14.9445 43.3333C23.8334 28.8889 44.9445 35.5556 50.5001 52.2222ZM50.5001 52.2222V60" stroke="black" stroke-width="1.5" stroke-linecap="round" stroke-linejoin="round"/>
<path d="M28.2778 66.6667C40.5001 60 60.5001 60 72.7223 66.6667" stroke="black" stroke-width="1.5" stroke-linecap="round" stroke-linejoin="round"/>
<path d="M28.2778 74.4445C40.5001 67.7778 60.5001 67.7778 72.7223 74.4445" stroke="black" stroke-width="1.5" stroke-linecap="round" stroke-linejoin="round"/>
<path d="M28.2778 82.2222C40.5001 75.5556 60.5001 75.5556 72.7223 82.2222" stroke="black" stroke-width="1.5" stroke-linecap="round" stroke-linejoin="round"/>
</svg>
