<svg width="100" height="100" viewBox="0 0 100 100" fill="none" xmlns="http://www.w3.org/2000/svg">
<path fill-rule="evenodd" clip-rule="evenodd" d="M48.8888 22.8889C72.2221 25.1111 85.5555 40.6667 84.4444 87.3333H33.3333C33.3333 67.3333 55.5555 72.8889 51.111 40.6667" fill="white"/>
<path d="M48.8888 22.8889C72.2221 25.1111 85.5555 40.6667 84.4444 87.3333H33.3333C33.3333 67.3333 55.5555 72.8889 51.111 40.6667" stroke="black" stroke-width="1.5" stroke-linecap="round" stroke-linejoin="round"/>
<path fill-rule="evenodd" clip-rule="evenodd" d="M53.3333 40.6667C54.1777 47.1333 40.9999 57.0444 35.5555 60.6667C28.8888 65.1111 29.2888 70.3111 24.4444 69.5556C22.1288 67.4667 27.5777 62.8 24.4444 62.8889C22.2221 62.8889 24.8666 65.6222 22.2221 67.3333C19.9999 67.3333 13.3266 69.5556 13.3333 58.4444C13.3333 54 26.6666 31.7778 26.6666 31.7778C26.6666 31.7778 30.8666 27.5556 31.111 24C29.4888 21.7911 29.9999 19.5556 29.9999 17.3333C32.2221 15.1111 36.6666 22.8889 36.6666 22.8889H41.111C41.111 22.8889 42.8444 18.4622 46.6666 16.2222C48.8888 16.2222 48.8888 22.8889 48.8888 22.8889" fill="white"/>
<path d="M53.3333 40.6667C54.1777 47.1333 40.9999 57.0444 35.5555 60.6667C28.8888 65.1111 29.2888 70.3111 24.4444 69.5556C22.1288 67.4667 27.5777 62.8 24.4444 62.8889C22.2221 62.8889 24.8666 65.6222 22.2221 67.3333C19.9999 67.3333 13.3266 69.5556 13.3333 58.4444C13.3333 54 26.6666 31.7778 26.6666 31.7778C26.6666 31.7778 30.8666 27.5556 31.111 24C29.4888 21.7911 29.9999 19.5556 29.9999 17.3333C32.2221 15.1111 36.6666 22.8889 36.6666 22.8889H41.111C41.111 22.8889 42.8444 18.4622 46.6666 16.2222C48.8888 16.2222 48.8888 22.8889 48.8888 22.8889" stroke="black" stroke-width="1.5" stroke-linecap="round" stroke-linejoin="round"/>
<path fill-rule="evenodd" clip-rule="evenodd" d="M21.1111 57.3333C21.1111 57.628 20.9941 57.9106 20.7857 58.119C20.5773 58.3274 20.2947 58.4445 20 58.4445C19.7053 58.4445 19.4227 58.3274 19.2144 58.119C19.006 57.9106 18.8889 57.628 18.8889 57.3333C18.8889 57.0387 19.006 56.756 19.2144 56.5477C19.4227 56.3393 19.7053 56.2222 20 56.2222C20.2947 56.2222 20.5773 56.3393 20.7857 56.5477C20.9941 56.756 21.1111 57.0387 21.1111 57.3333Z" fill="black" stroke="black" stroke-width="1.5" stroke-linecap="round" stroke-linejoin="round"/>
<path fill-rule="evenodd" clip-rule="evenodd" d="M33.1843 35.6667C32.7423 36.4323 32.217 37.108 31.724 37.5451C31.2309 37.9823 30.8106 38.1451 30.5554 37.9978C30.3002 37.8504 30.2311 37.405 30.3632 36.7594C30.4953 36.1139 30.8178 35.3211 31.2598 34.5556C31.7019 33.79 32.2272 33.1143 32.7202 32.6771C33.2132 32.2399 33.6335 32.0771 33.8887 32.2244C34.1439 32.3718 34.2131 32.8172 34.081 33.4628C33.9489 34.1083 33.6263 34.9011 33.1843 35.6667Z" fill="black" stroke="black" stroke-width="1.5" stroke-linecap="round" stroke-linejoin="round"/>
</svg>
