<svg width="101" height="100" viewBox="0 0 101 100" fill="none" xmlns="http://www.w3.org/2000/svg">
<path d="M50.4999 20C45.5888 20 41.611 23.9778 41.611 28.8889C41.611 30.8667 42.2554 32.6889 43.3443 34.1778C39.011 36.6667 36.0554 41.3111 36.0554 46.6667C36.0554 51.1778 38.1443 55.2 41.411 57.8444C34.7443 60.2 24.9443 70.1778 24.9443 87.7778H76.0554C76.0554 70.1778 66.2554 60.2 59.5888 57.8444C62.8554 55.2 64.9443 51.1778 64.9443 46.6667C64.9443 41.3111 61.9888 36.6667 57.6554 34.1778C58.7443 32.6889 59.3888 30.8667 59.3888 28.8889C59.3888 23.9778 55.411 20 50.4999 20Z" fill="white" stroke="black" stroke-width="1.5" stroke-linecap="round"/>
</svg>
