<svg width="101" height="100" viewBox="0 0 101 100" fill="none" xmlns="http://www.w3.org/2000/svg">
<path d="M20.5001 57.7778C39.389 54.4445 67.1668 54.4445 80.5001 57.7778L86.0557 30L69.389 55.5556L68.7224 24.2222L57.1668 54.4445L50.5001 22.2222L43.8335 54.4445L32.2779 24.2222L31.6112 55.5556L14.9446 30L20.5001 57.7778Z" fill="white" stroke="black" stroke-width="1.5" stroke-linejoin="round"/>
<path d="M20.5 57.7778C20.5 62.2222 23.8333 62.2222 26.0556 66.6667C28.2778 70 28.2778 68.8889 27.1667 74.4445C23.8333 76.6667 24.9444 80 24.9444 80C21.6111 83.3334 24.9444 85.5556 24.9444 85.5556C39.3889 87.7778 61.6111 87.7778 76.0556 85.5556C76.0556 85.5556 79.3889 83.3334 76.0556 80C76.0556 80 77.1667 76.6667 73.8333 74.4445C72.7222 68.8889 72.7222 70 74.9444 66.6667C77.1667 62.2222 80.5 62.2222 80.5 57.7778C61.6111 54.4445 39.3889 54.4445 20.5 57.7778Z" fill="white" stroke="black" stroke-width="1.5" stroke-linejoin="round"/>
<path d="M26.0557 66.6667C33.8334 64.4444 67.1668 64.4444 74.9446 66.6667" stroke="black" stroke-width="1.5" stroke-linejoin="round"/>
<path d="M27.1667 74.4445C40.5001 72.2222 60.5001 72.2222 73.8334 74.4445" stroke="black" stroke-width="1.5" stroke-linejoin="round"/>
<path d="M13.8334 31.1111C16.288 31.1111 18.2778 29.1213 18.2778 26.6667C18.2778 24.2121 16.288 22.2222 13.8334 22.2222C11.3788 22.2222 9.38892 24.2121 9.38892 26.6667C9.38892 29.1213 11.3788 31.1111 13.8334 31.1111Z" fill="white" stroke="black" stroke-width="1.5" stroke-linejoin="round"/>
<path d="M31.6112 24.4445C34.0658 24.4445 36.0556 22.4546 36.0556 20C36.0556 17.5454 34.0658 15.5556 31.6112 15.5556C29.1566 15.5556 27.1667 17.5454 27.1667 20C27.1667 22.4546 29.1566 24.4445 31.6112 24.4445Z" fill="white" stroke="black" stroke-width="1.5" stroke-linejoin="round"/>
<path d="M50.5001 22.2222C52.9547 22.2222 54.9446 20.2324 54.9446 17.7778C54.9446 15.3232 52.9547 13.3333 50.5001 13.3333C48.0455 13.3333 46.0557 15.3232 46.0557 17.7778C46.0557 20.2324 48.0455 22.2222 50.5001 22.2222Z" fill="white" stroke="black" stroke-width="1.5" stroke-linejoin="round"/>
<path d="M69.389 24.4445C71.8436 24.4445 73.8335 22.4546 73.8335 20C73.8335 17.5454 71.8436 15.5556 69.389 15.5556C66.9344 15.5556 64.9446 17.5454 64.9446 20C64.9446 22.4546 66.9344 24.4445 69.389 24.4445Z" fill="white" stroke="black" stroke-width="1.5" stroke-linejoin="round"/>
<path d="M87.1666 31.1111C89.6212 31.1111 91.6111 29.1213 91.6111 26.6667C91.6111 24.2121 89.6212 22.2222 87.1666 22.2222C84.712 22.2222 82.7222 24.2121 82.7222 26.6667C82.7222 29.1213 84.712 31.1111 87.1666 31.1111Z" fill="white" stroke="black" stroke-width="1.5" stroke-linejoin="round"/>
</svg>
