<svg width="101" height="100" viewBox="0 0 101 100" fill="none" xmlns="http://www.w3.org/2000/svg">
<path fill-rule="evenodd" clip-rule="evenodd" d="M20.5 87.3333H80.5V80.6667H20.5V87.3333Z" fill="white" stroke="black" stroke-width="1.5" stroke-linejoin="round"/>
<path fill-rule="evenodd" clip-rule="evenodd" d="M27.1667 80.6667V71.7778H73.8334V80.6667H27.1667Z" fill="white" stroke="black" stroke-width="1.5" stroke-linejoin="round"/>
<path fill-rule="evenodd" clip-rule="evenodd" d="M24.9443 31.7778V20.6667H33.8332V25.1111H44.9443V20.6667H56.0554V25.1111H67.1666V20.6667H76.0554V31.7778" fill="white"/>
<path d="M24.9443 31.7778V20.6667H33.8332V25.1111H44.9443V20.6667H56.0554V25.1111H67.1666V20.6667H76.0554V31.7778" stroke="black" stroke-width="1.5" stroke-linejoin="round"/>
<path fill-rule="evenodd" clip-rule="evenodd" d="M76.0554 31.7778L69.3888 38.4444H31.611L24.9443 31.7778" fill="white"/>
<path d="M76.0554 31.7778L69.3888 38.4444H31.611L24.9443 31.7778" stroke="black" stroke-width="1.5" stroke-linecap="round" stroke-linejoin="round"/>
<path fill-rule="evenodd" clip-rule="evenodd" d="M69.3889 38.4444V66.2222H31.6111V38.4444" fill="white"/>
<path d="M69.3889 38.4444V66.2222H31.6111V38.4444" stroke="black" stroke-width="1.5"/>
<path fill-rule="evenodd" clip-rule="evenodd" d="M69.3889 66.2222L72.7223 71.7778H28.2778L31.6112 66.2222" fill="white"/>
<path d="M69.3889 66.2222L72.7223 71.7778H28.2778L31.6112 66.2222" stroke="black" stroke-width="1.5" stroke-linecap="round" stroke-linejoin="round"/>
<path d="M24.9443 31.7778H76.0554" stroke="black" stroke-width="1.5" stroke-linecap="round"/>
</svg>
