<svg width="100" height="100" viewBox="0 0 100 100" fill="none" xmlns="http://www.w3.org/2000/svg">
<path d="M33.2989 80H64.2011C64.6422 80 65 80.4561 65 81.0189V83.9811C65 84.5439 64.6422 85 64.2011 85H33.2989C32.8577 85 32.5 84.5439 32.5 83.9811V81.0189C32.5 80.4561 32.8577 80 33.2989 80Z" fill="white"/>
<mask id="mask0_303_1357" style="mask-type:luminance" maskUnits="userSpaceOnUse" x="32" y="15" width="36" height="65">
<path d="M32.5 15.8334H67.5V79.1667H32.5V15.8334Z" fill="white"/>
</mask>
<g mask="url(#mask0_303_1357)">
<path d="M48.2571 40.871C41.6197 40.871 36.239 35.5148 36.239 28.9077C36.239 22.3006 41.6197 16.9445 48.2571 16.9445C54.8945 16.9445 60.275 22.3006 60.275 28.9077C60.275 35.5148 54.8945 40.871 48.2571 40.871Z" fill="white" stroke="white" stroke-width="1.5" stroke-miterlimit="10"/>
<path d="M38.5054 36.9445H58.0173C59.2656 36.9445 60.2779 37.9519 60.2779 39.1947V40.49C60.2779 41.7327 59.2656 42.7401 58.0173 42.7401H38.5054C37.2569 42.7401 36.2449 41.7327 36.2449 40.49V39.1947C36.2449 37.9519 37.2569 36.9445 38.5054 36.9445Z" fill="white" stroke="white" stroke-width="1.5" stroke-miterlimit="10"/>
<path d="M38.3186 44.1666H58.204C59.3495 44.1666 60.2779 45.0908 60.2779 46.2309V46.234C60.2779 47.3741 59.3495 48.2983 58.204 48.2983H38.3186C37.1733 48.2983 36.2449 47.3741 36.2449 46.234V46.2309C36.2449 45.0908 37.1733 44.1666 38.3186 44.1666Z" fill="white" stroke="white" stroke-width="1.5" stroke-miterlimit="10"/>
<path d="M56.5994 46.2047C57.5111 51.3354 58.7333 56.8755 60.3767 62.7283C61.5383 66.8628 62.7955 70.7428 64.0933 74.3605C64.3817 75.1739 64.8055 76.7433 64.0333 77.8272C63.185 79.0155 61.3105 79.0061 60.1294 79.0061C56.5328 78.9966 52.8352 78.9967 48.732 78.9744C48.6782 68.0889 48.6212 57.2066 48.5674 46.3213C51.2458 46.2803 53.9211 46.2425 56.5994 46.2015V46.2047Z" fill="white" stroke="white" stroke-width="1.5" stroke-miterlimit="10"/>
<path d="M40.5354 46.2047C39.6236 51.3354 38.4015 56.8755 36.7584 62.7283C35.5964 66.8628 34.3395 70.7428 33.0415 74.3605C32.7534 75.1739 32.3291 76.7433 33.1016 77.8272C33.9501 79.0155 35.8244 79.0061 37.0053 79.0061C40.6019 78.9966 44.2998 78.9967 48.4029 78.9744C48.4567 68.0889 48.5136 57.2066 48.5675 46.3213C45.8891 46.2803 43.2138 46.2425 40.5354 46.2015V46.2047Z" fill="white" stroke="white" stroke-width="1.5" stroke-miterlimit="10"/>
</g>
</svg>
