<svg width="100" height="100" viewBox="0 0 100 100" fill="none" xmlns="http://www.w3.org/2000/svg">
<path d="M38.5653 88.3334H79.7678C80.3561 88.3334 80.8333 88.7895 80.8333 89.3523V92.3145C80.8333 92.8773 80.3561 93.3334 79.7678 93.3334H38.5653C37.9769 93.3334 37.5 92.8773 37.5 92.3145V89.3523C37.5 88.7895 37.9769 88.3334 38.5653 88.3334Z" fill="white"/>
<mask id="mask0_303_1344" style="mask-type:luminance" maskUnits="userSpaceOnUse" x="19" y="6" width="62" height="80">
<path d="M19.1668 6.66663H80.8335V85.8333H19.1668V6.66663Z" fill="white"/>
</mask>
<g mask="url(#mask0_303_1344)">
<path d="M47.6453 48.0306C38.7867 48.0306 31.6055 41.3659 31.6055 33.1446C31.6055 24.9233 38.7867 18.2587 47.6453 18.2587C56.504 18.2587 63.6851 24.9233 63.6851 33.1446C63.6851 41.3659 56.504 48.0306 47.6453 48.0306Z" fill="white" stroke="white" stroke-width="1.5" stroke-miterlimit="10"/>
<path d="M19.3209 48.897C19.373 49.4664 19.7235 52.6105 22.3205 54.4268C23.9583 55.5705 25.7229 55.6538 26.7915 55.7033C27.7086 55.7449 29.2966 55.8183 30.8226 55.0797C33.3899 53.8353 35.1917 50.5783 34.8114 47.7336C34.3393 44.1944 30.584 41.9903 26.7915 39.7617C25.9118 39.2463 25.1488 38.8634 24.612 38.6082C23.7869 39.3445 22.6635 40.4882 21.6346 42.0934C20.4268 43.9759 19.0649 46.0965 19.3209 48.897Z" fill="white" stroke="white" stroke-width="1.5" stroke-miterlimit="10"/>
<path d="M56.9251 36.3184C58.0362 37.8352 57.1912 40.7166 55.7223 42.3734C54.7805 43.4386 54.2138 43.1809 51.2216 44.6093C47.6204 46.3274 48.0901 46.8109 46.2014 47.3901C43.1892 48.313 42.4436 46.9484 38.6089 47.8147C36.5312 48.2835 35.1171 49.0517 34.0236 49.6457C32.2367 50.6177 30.917 51.3565 30.2535 52.8365C29.7166 54.0342 30.1069 54.6846 29.6744 54.9497C27.9248 56.0172 19.7831 51.6657 19.7756 46.4746C19.7756 45.9666 19.8527 45.1591 22.0894 41.556C24.694 37.359 25.8943 36.3478 28.6852 32.3619C31.0985 28.911 33.7546 25.4687 34.7492 24.4791C36.7597 22.0125 39.4316 20.2896 41.38 19.5312C43.5283 18.8587 42.2473 18.8283 43.9397 19.2014C49.9342 20.5243 52.9091 33.3584 56.3812 35.7906C56.4479 35.8373 56.699 36.0091 56.9279 36.3208L56.9251 36.3184Z" fill="white" stroke="white" stroke-width="1.5" stroke-miterlimit="10"/>
<path d="M53.1975 9.39839C52.3649 10.6403 48.724 16.0669 50.9483 20.8261C51.3261 21.636 52.3475 23.44 55.0142 24.8488C55.4814 23.4203 55.9685 21.5624 56.2518 19.3559C56.3813 18.3471 56.5474 16.6585 56.483 14.5673C56.4257 12.6529 56.1624 9.98989 55.2652 6.90222C54.711 7.44955 53.948 8.27917 53.2 9.39839H53.1975Z" fill="white" stroke="white" stroke-width="1.5" stroke-miterlimit="10"/>
<path d="M42.6923 12.8811C41.4969 16.5995 42.3369 20.4652 44.8793 22.7577C46.7035 24.4045 48.8632 24.7555 49.8573 24.8463C49.6411 22.6988 49.0595 19.5595 47.4093 16.1185C46.1989 13.5954 44.7724 11.6564 43.5795 10.2721C43.2838 11.141 42.988 12.0098 42.6923 12.8787V12.8811Z" fill="white" stroke="white" stroke-width="1.5" stroke-miterlimit="10"/>
<path d="M50.9656 19.1251C54.9694 20.0087 66.9012 23.2018 74.409 34.0994C75.6218 35.8592 80.4407 43.0432 80.6918 52.7381C80.8829 60.1455 79.3596 62.9043 78.7385 68.4093C78.3284 72.0471 78.3107 73.9171 78.5346 75.6649C79.1634 80.5394 81.2012 83.8549 79.7501 85.2149C79.1684 85.7593 78.3134 85.7205 77.9307 85.7055C74.3568 85.5632 62.3357 85.5021 45.8386 85.4088C44.9314 85.4355 43.6441 85.4455 42.0982 85.3716C40.5201 85.2955 39.7298 85.2566 39.4216 85.0821C38.9792 84.8293 37.6173 83.7738 39.1632 74.521C40.0081 69.4671 40.4282 66.9416 41.6658 64.2638C42.7146 61.996 44.7947 58.9627 46.6537 55.9093C49.2782 51.5993 49.6658 51.1403 49.6534 49.945C49.6336 47.9864 48.5698 47.3679 48.0604 45.3773C47.1632 41.8897 49.129 38.7407 49.9989 36.9907C51.6242 33.7116 52.8743 28.3217 50.9681 19.1276L50.9656 19.1251Z" fill="white" stroke="white" stroke-width="1.5" stroke-miterlimit="10"/>
<path d="M43.5103 31.9356C44.0338 31.7361 44.5097 31.7361 44.7953 31.7361C45.1665 31.7361 45.471 31.786 45.6899 31.8359C44.9761 32.1186 44.2052 32.4429 43.4152 32.8255C42.806 33.1248 42.2349 33.4242 41.7114 33.7153C41.8161 33.499 41.9875 33.183 42.273 32.8504C42.511 32.576 42.8631 32.1768 43.5008 31.9356H43.5103Z" fill="#E5E5E5" stroke="#616161" stroke-width="1.5" stroke-miterlimit="10"/>
</g>
</svg>
