<svg width="100" height="100" viewBox="0 0 100 100" fill="none" xmlns="http://www.w3.org/2000/svg">
<g clip-path="url(#clip0_303_1320)">
<mask id="mask0_303_1320" style="mask-type:luminance" maskUnits="userSpaceOnUse" x="0" y="0" width="100" height="100">
<path d="M100 0H0V100H100V0Z" fill="white"/>
</mask>
<g mask="url(#mask0_303_1320)">
<mask id="mask1_303_1320" style="mask-type:luminance" maskUnits="userSpaceOnUse" x="-4" y="17" width="107" height="65">
<path d="M-3.33332 17.5H103V81.8917H-3.33332V17.5Z" fill="white"/>
</mask>
<g mask="url(#mask1_303_1320)">
<path d="M49.8668 17.5L37.0585 31.3083C36.0918 32.35 36.1335 33.9583 37.1335 34.9583L42.5918 40.3667C46.8918 44.4333 41.1751 51.825 41.1751 51.825C36.8418 56.3083 28.8085 52.6833 28.8085 52.6833C25.7501 50.8667 25.3751 43.075 25.3918 39.1333C25.3918 37.7333 24.5001 36.4917 23.1751 36.0417L-2.34151 27.2417C-2.97484 27.025 -3.54984 27.675 -3.25817 28.275L16.6585 69.0083C17.6835 71.1 19.8001 72.425 22.1335 72.425H49.8668V17.5Z" fill="white"/>
<path d="M19.8251 74.2833H79.7751C80.6312 74.2833 81.3251 74.9772 81.3251 75.8333V80.3417C81.3251 81.1978 80.6312 81.8917 79.7751 81.8917H19.8251C18.9691 81.8917 18.2751 81.1978 18.2751 80.3417V75.8333C18.2751 74.9772 18.9691 74.2833 19.8251 74.2833Z" fill="white"/>
<path d="M49.8 17.5L62.6083 31.3084C63.575 32.35 63.5333 33.9584 62.5333 34.9584L57.075 40.3667C52.775 44.4334 58.4917 51.825 58.4917 51.825C62.825 56.3084 70.8583 52.6834 70.8583 52.6834C73.9167 50.8667 74.2917 43.075 74.275 39.1334C74.275 37.7334 75.1667 36.4917 76.4917 36.0417L102.008 27.2417C102.642 27.025 103.217 27.675 102.925 28.275L83.0083 69.0084C81.9833 71.1 79.8667 72.425 77.5333 72.425H49.8V17.4917V17.5Z" fill="white"/>
<path d="M43.7031 60.0151L49.3422 54.3758C49.6286 54.0894 50.093 54.0894 50.3794 54.3758L56.0184 60.0151C56.3051 60.3012 56.3051 60.7656 56.0184 61.0523L50.3794 66.6912C50.093 66.9779 49.6286 66.9779 49.3422 66.6912L43.7031 61.0523C43.4167 60.7656 43.4167 60.3012 43.7031 60.0151Z" fill="#3A3A3C"/>
</g>
</g>
</g>
<defs>
<clipPath id="clip0_303_1320">
<rect width="100" height="100" fill="white"/>
</clipPath>
</defs>
</svg>
