<svg width="100" height="100" viewBox="0 0 100 100" fill="none" xmlns="http://www.w3.org/2000/svg">
<mask id="mask0_310_141" style="mask-type:luminance" maskUnits="userSpaceOnUse" x="20" y="10" width="61" height="80">
<path d="M19.9999 10H80.8333V89.1667H19.9999V10Z" fill="white"/>
</mask>
<g mask="url(#mask0_310_141)">
<path d="M50.2666 25.8725C50.2666 25.8725 80.6522 37.63 80.6522 58.7934C80.6522 79.9567 61.8422 79.1728 61.8422 79.1728L38.9912 79.0711C38.9912 79.0711 20.1809 79.855 20.1809 58.6917C20.1809 37.5281 50.5668 25.7706 50.5668 25.7706" fill="white"/>
<path d="M50.2666 25.8725C50.2666 25.8725 80.6522 37.63 80.6522 58.7934C80.6522 79.9567 61.8422 79.1728 61.8422 79.1728L38.9912 79.0711C38.9912 79.0711 20.1809 79.855 20.1809 58.6917C20.1809 37.5281 50.5668 25.7706 50.5668 25.7706" stroke="white" stroke-width="1.5" stroke-miterlimit="10"/>
<path d="M50.2667 26.6563C46.0712 26.6563 42.6702 22.9715 42.6702 18.4261C42.6702 13.8807 46.0712 10.1959 50.2667 10.1959C54.4621 10.1959 57.8629 13.8807 57.8629 18.4261C57.8629 22.9715 54.4621 26.6563 50.2667 26.6563Z" fill="white" stroke="white" stroke-width="1.5" stroke-miterlimit="10"/>
<path d="M29.2859 81.9161H71.2474C71.8468 81.9161 72.3329 82.4428 72.3329 83.0922V87.795C72.3329 88.4445 71.8468 88.9706 71.2474 88.9706H29.2859C28.6866 88.9706 28.2007 88.4445 28.2007 87.795V83.0922C28.2007 82.4428 28.6866 81.9161 29.2859 81.9161Z" fill="white" stroke="white" stroke-width="1.5" stroke-miterlimit="10"/>
</g>
</svg>
