<svg width="100" height="100" viewBox="0 0 100 100" fill="none" xmlns="http://www.w3.org/2000/svg">
<mask id="mask0_303_1307" style="mask-type:luminance" maskUnits="userSpaceOnUse" x="26" y="16" width="49" height="62">
<path d="M26.6667 16.6666H74.1667V77.5H26.6667V16.6666Z" fill="white"/>
</mask>
<g mask="url(#mask0_303_1307)">
<path d="M71.4945 23.5035H29.3391C27.86 23.5035 26.6667 24.7075 26.6667 26.1859V42.5295C26.6667 48.3621 31.3838 53.0968 37.1947 53.0968H63.639C69.4495 53.103 74.1668 48.3621 74.1668 42.5295V26.1859C74.1668 24.7013 72.9673 23.5035 71.4945 23.5035Z" fill="white"/>
<path d="M35.2621 39.4479C39.1339 48.936 33.9508 67.0388 30.7812 74.3499C30.1411 75.8344 31.21 77.4938 32.8073 77.4938L50.4076 77.1944V36.1917L35.2559 39.4479H35.2621Z" fill="white"/>
<path d="M71.3269 16.6666H68.3996C66.8335 16.6666 65.5591 17.9454 65.5591 19.5174V26.922H74.1669V19.5174C74.1669 17.9454 72.893 16.6666 71.3269 16.6666Z" fill="white"/>
<path d="M58.2879 16.6666H55.3607C53.7946 16.6666 52.5205 17.9454 52.5205 19.5174V26.922H61.1218V19.5174C61.1218 17.9454 59.8479 16.6666 58.2818 16.6666H58.2879Z" fill="white"/>
<path d="M32.428 16.6666H29.5008C27.9347 16.6666 26.6606 17.9454 26.6606 19.5174V26.922H35.262V19.5174C35.262 17.9454 33.9879 16.6666 32.4218 16.6666H32.428Z" fill="white"/>
<path d="M45.243 16.6666H42.3158C40.7496 16.6666 39.4756 17.9454 39.4756 19.5174V26.922H48.0769V19.5174C48.0769 17.9454 46.8029 16.6666 45.2368 16.6666H45.243Z" fill="white"/>
<path d="M65.199 39.4479C61.3268 48.936 66.5101 67.0388 69.6796 74.3499C70.3196 75.8344 69.2507 77.4938 67.6534 77.4938L50.0532 77.1944V36.1917L65.2051 39.4479H65.199Z" fill="white"/>
</g>
<path d="M31.0038 79.1666H69.8294C70.3839 79.1666 70.8333 79.6227 70.8333 80.1855V83.1477C70.8333 83.7105 70.3839 84.1666 69.8294 84.1666H31.0038C30.4494 84.1666 30 83.7105 30 83.1477V80.1855C30 79.6227 30.4494 79.1666 31.0038 79.1666Z" fill="white"/>
</svg>
